<mxfile host="app.diagrams.net" modified="2023-05-05T14:21:47.053Z" agent="Mozilla/5.0 (X11; Linux x86_64) AppleWebKit/537.36 (KHTML, like Gecko) Chrome/112.0.0.0 Safari/537.36" etag="-RfhzTWlLRZe0NyIf5GY" version="21.2.8" type="github">
  <diagram name="Page-1" id="pf8TTYPP2woDrYt7JxfX">
    <mxGraphModel dx="1360" dy="775" grid="1" gridSize="10" guides="1" tooltips="1" connect="1" arrows="1" fold="1" page="1" pageScale="1" pageWidth="827" pageHeight="1169" math="0" shadow="0">
      <root>
        <mxCell id="0" />
        <mxCell id="1" parent="0" />
        <mxCell id="_wmhjDqbsRkrydcH3arH-1" value="Customer_agent" style="shape=umlActor;verticalLabelPosition=bottom;verticalAlign=top;html=1;outlineConnect=0;" vertex="1" parent="1">
          <mxGeometry x="70" y="360" width="30" height="60" as="geometry" />
        </mxCell>
        <mxCell id="_wmhjDqbsRkrydcH3arH-2" value="" style="ellipse;whiteSpace=wrap;html=1;" vertex="1" parent="1">
          <mxGeometry x="190" y="370" width="120" height="50" as="geometry" />
        </mxCell>
        <mxCell id="_wmhjDqbsRkrydcH3arH-3" value="Register Customer_agent" style="text;html=1;strokeColor=none;fillColor=none;align=center;verticalAlign=middle;whiteSpace=wrap;rounded=0;" vertex="1" parent="1">
          <mxGeometry x="220" y="375" width="60" height="30" as="geometry" />
        </mxCell>
        <mxCell id="_wmhjDqbsRkrydcH3arH-4" value="" style="ellipse;whiteSpace=wrap;html=1;" vertex="1" parent="1">
          <mxGeometry x="340" y="365" width="120" height="50" as="geometry" />
        </mxCell>
        <mxCell id="_wmhjDqbsRkrydcH3arH-5" value="Log in" style="text;html=1;strokeColor=none;fillColor=none;align=center;verticalAlign=middle;whiteSpace=wrap;rounded=0;" vertex="1" parent="1">
          <mxGeometry x="370" y="375" width="60" height="30" as="geometry" />
        </mxCell>
        <mxCell id="_wmhjDqbsRkrydcH3arH-6" value="" style="ellipse;whiteSpace=wrap;html=1;" vertex="1" parent="1">
          <mxGeometry x="500" y="130" width="120" height="50" as="geometry" />
        </mxCell>
        <mxCell id="_wmhjDqbsRkrydcH3arH-7" value="View Enquiry" style="text;html=1;strokeColor=none;fillColor=none;align=center;verticalAlign=middle;whiteSpace=wrap;rounded=0;" vertex="1" parent="1">
          <mxGeometry x="530" y="135" width="60" height="30" as="geometry" />
        </mxCell>
        <mxCell id="_wmhjDqbsRkrydcH3arH-8" value="" style="ellipse;whiteSpace=wrap;html=1;" vertex="1" parent="1">
          <mxGeometry x="485" y="195" width="150" height="70" as="geometry" />
        </mxCell>
        <mxCell id="_wmhjDqbsRkrydcH3arH-9" value="Respond To enquiry through Dashboard" style="text;html=1;strokeColor=none;fillColor=none;align=center;verticalAlign=middle;whiteSpace=wrap;rounded=0;" vertex="1" parent="1">
          <mxGeometry x="530" y="215" width="60" height="30" as="geometry" />
        </mxCell>
        <mxCell id="_wmhjDqbsRkrydcH3arH-10" value="" style="ellipse;whiteSpace=wrap;html=1;" vertex="1" parent="1">
          <mxGeometry x="560" y="335" width="150" height="70" as="geometry" />
        </mxCell>
        <mxCell id="_wmhjDqbsRkrydcH3arH-11" value="Assign Enquiry to&amp;nbsp;technical person" style="text;html=1;strokeColor=none;fillColor=none;align=center;verticalAlign=middle;whiteSpace=wrap;rounded=0;" vertex="1" parent="1">
          <mxGeometry x="595" y="355" width="60" height="30" as="geometry" />
        </mxCell>
        <mxCell id="_wmhjDqbsRkrydcH3arH-12" value="" style="ellipse;whiteSpace=wrap;html=1;" vertex="1" parent="1">
          <mxGeometry x="485" y="440" width="150" height="70" as="geometry" />
        </mxCell>
        <mxCell id="_wmhjDqbsRkrydcH3arH-13" value="update enquiry status" style="text;html=1;strokeColor=none;fillColor=none;align=center;verticalAlign=middle;whiteSpace=wrap;rounded=0;" vertex="1" parent="1">
          <mxGeometry x="530" y="460" width="60" height="30" as="geometry" />
        </mxCell>
        <mxCell id="_wmhjDqbsRkrydcH3arH-14" value="" style="ellipse;whiteSpace=wrap;html=1;" vertex="1" parent="1">
          <mxGeometry x="490" y="530" width="150" height="70" as="geometry" />
        </mxCell>
        <mxCell id="_wmhjDqbsRkrydcH3arH-15" value="Read Customer Feedback" style="text;html=1;strokeColor=none;fillColor=none;align=center;verticalAlign=middle;whiteSpace=wrap;rounded=0;" vertex="1" parent="1">
          <mxGeometry x="535" y="550" width="60" height="30" as="geometry" />
        </mxCell>
        <mxCell id="_wmhjDqbsRkrydcH3arH-16" value="" style="endArrow=none;html=1;rounded=0;exitX=0.5;exitY=0.5;exitDx=0;exitDy=0;exitPerimeter=0;entryX=-0.025;entryY=0.36;entryDx=0;entryDy=0;entryPerimeter=0;" edge="1" parent="1" source="_wmhjDqbsRkrydcH3arH-1" target="_wmhjDqbsRkrydcH3arH-2">
          <mxGeometry width="50" height="50" relative="1" as="geometry">
            <mxPoint x="390" y="400" as="sourcePoint" />
            <mxPoint x="440" y="350" as="targetPoint" />
          </mxGeometry>
        </mxCell>
        <mxCell id="_wmhjDqbsRkrydcH3arH-17" value="" style="endArrow=none;html=1;rounded=0;exitX=1;exitY=0.5;exitDx=0;exitDy=0;entryX=0;entryY=0.5;entryDx=0;entryDy=0;" edge="1" parent="1" source="_wmhjDqbsRkrydcH3arH-2" target="_wmhjDqbsRkrydcH3arH-4">
          <mxGeometry width="50" height="50" relative="1" as="geometry">
            <mxPoint x="390" y="400" as="sourcePoint" />
            <mxPoint x="440" y="350" as="targetPoint" />
          </mxGeometry>
        </mxCell>
        <mxCell id="_wmhjDqbsRkrydcH3arH-19" value="" style="endArrow=none;html=1;rounded=0;entryX=0.233;entryY=0.929;entryDx=0;entryDy=0;entryPerimeter=0;exitX=0.717;exitY=0.06;exitDx=0;exitDy=0;exitPerimeter=0;" edge="1" parent="1" source="_wmhjDqbsRkrydcH3arH-4" target="_wmhjDqbsRkrydcH3arH-8">
          <mxGeometry width="50" height="50" relative="1" as="geometry">
            <mxPoint x="430" y="360" as="sourcePoint" />
            <mxPoint x="440" y="350" as="targetPoint" />
          </mxGeometry>
        </mxCell>
        <mxCell id="_wmhjDqbsRkrydcH3arH-20" value="" style="endArrow=none;html=1;rounded=0;entryX=0;entryY=0.5;entryDx=0;entryDy=0;exitX=1;exitY=0.5;exitDx=0;exitDy=0;" edge="1" parent="1" source="_wmhjDqbsRkrydcH3arH-4" target="_wmhjDqbsRkrydcH3arH-10">
          <mxGeometry width="50" height="50" relative="1" as="geometry">
            <mxPoint x="390" y="400" as="sourcePoint" />
            <mxPoint x="440" y="350" as="targetPoint" />
          </mxGeometry>
        </mxCell>
        <mxCell id="_wmhjDqbsRkrydcH3arH-21" value="" style="endArrow=none;html=1;rounded=0;entryX=0;entryY=0.5;entryDx=0;entryDy=0;exitX=0.417;exitY=0.04;exitDx=0;exitDy=0;exitPerimeter=0;" edge="1" parent="1" source="_wmhjDqbsRkrydcH3arH-4" target="_wmhjDqbsRkrydcH3arH-6">
          <mxGeometry width="50" height="50" relative="1" as="geometry">
            <mxPoint x="390" y="400" as="sourcePoint" />
            <mxPoint x="440" y="350" as="targetPoint" />
          </mxGeometry>
        </mxCell>
        <mxCell id="_wmhjDqbsRkrydcH3arH-22" value="" style="endArrow=none;html=1;rounded=0;entryX=0.1;entryY=0.243;entryDx=0;entryDy=0;entryPerimeter=0;exitX=1;exitY=1;exitDx=0;exitDy=0;" edge="1" parent="1" source="_wmhjDqbsRkrydcH3arH-4" target="_wmhjDqbsRkrydcH3arH-12">
          <mxGeometry width="50" height="50" relative="1" as="geometry">
            <mxPoint x="390" y="400" as="sourcePoint" />
            <mxPoint x="440" y="350" as="targetPoint" />
          </mxGeometry>
        </mxCell>
        <mxCell id="_wmhjDqbsRkrydcH3arH-23" value="" style="endArrow=none;html=1;rounded=0;entryX=0;entryY=0.5;entryDx=0;entryDy=0;exitX=0.417;exitY=1.06;exitDx=0;exitDy=0;exitPerimeter=0;" edge="1" parent="1" source="_wmhjDqbsRkrydcH3arH-4" target="_wmhjDqbsRkrydcH3arH-14">
          <mxGeometry width="50" height="50" relative="1" as="geometry">
            <mxPoint x="390" y="420" as="sourcePoint" />
            <mxPoint x="440" y="350" as="targetPoint" />
          </mxGeometry>
        </mxCell>
      </root>
    </mxGraphModel>
  </diagram>
</mxfile>
